name p5_grf_mean_speed_1.0
datacolumns 13
datarows 22
range 0.0000000000 0.2100000000
endheader
time	grf_x_l_mean	grf_x_l_var	grf_y_l_mean	grf_y_l_var	grf_z_l_mean	grf_z_l_var	grf_x_r_mean	grf_x_r_var	grf_y_r_mean	grf_y_r_var	grf_z_r_mean	grf_z_r_var
0.0000000000	95.1992141786	1.0000000000	705.1712250183	1.0000000000	0.0000000000	0.0000000000	9.0939007805	1.0000000000	10.9376750714	1.0000000000	0.0000000000	0.0000000000
0.0100000000	103.1672963985	1.0000000000	698.3988384834	1.0000000000	0.0000000000	0.0000000000	15.8979725513	1.0000000000	39.2315207069	1.0000000000	0.0000000000	0.0000000000
0.0200000000	111.2582020088	1.0000000000	685.7701429963	1.0000000000	0.0000000000	0.0000000000	21.5712646830	1.0000000000	84.3536774651	1.0000000000	0.0000000000	0.0000000000
0.0300000000	118.9454876720	1.0000000000	665.4252229830	1.0000000000	0.0000000000	0.0000000000	20.3206237837	1.0000000000	144.5053826087	1.0000000000	0.0000000000	0.0000000000
0.0400000000	124.7432186553	1.0000000000	635.0073790770	1.0000000000	0.0000000000	0.0000000000	9.2854559444	1.0000000000	214.4856832799	1.0000000000	0.0000000000	0.0000000000
0.0500000000	128.0584394856	1.0000000000	592.5424831764	1.0000000000	0.0000000000	0.0000000000	-7.6813918759	1.0000000000	287.2721899011	1.0000000000	0.0000000000	0.0000000000
0.0600000000	128.2505435516	1.0000000000	536.8179938081	1.0000000000	0.0000000000	0.0000000000	-26.6039607902	1.0000000000	355.4529265727	1.0000000000	0.0000000000	0.0000000000
0.0700000000	122.6854214387	1.0000000000	467.8486687155	1.0000000000	0.0000000000	0.0000000000	-45.5872631879	1.0000000000	414.5883388133	1.0000000000	0.0000000000	0.0000000000
0.0800000000	110.4930233928	1.0000000000	388.4109952996	1.0000000000	0.0000000000	0.0000000000	-62.4560472303	1.0000000000	464.8403178194	1.0000000000	0.0000000000	0.0000000000
0.0900000000	92.4090269477	1.0000000000	304.6681567939	1.0000000000	0.0000000000	0.0000000000	-75.4039834453	1.0000000000	509.1913827779	1.0000000000	0.0000000000	0.0000000000
0.1000000000	69.1980829103	1.0000000000	224.5393524801	1.0000000000	0.0000000000	0.0000000000	-84.7251892656	1.0000000000	550.4527828738	1.0000000000	0.0000000000	0.0000000000
0.1100000000	44.3634842986	1.0000000000	155.0331620823	1.0000000000	0.0000000000	0.0000000000	-90.5677595563	1.0000000000	590.0195799888	1.0000000000	0.0000000000	0.0000000000
0.1200000000	23.0730563310	1.0000000000	100.5712342671	1.0000000000	0.0000000000	0.0000000000	-92.3115187348	1.0000000000	628.1317941480	1.0000000000	0.0000000000	0.0000000000
0.1300000000	7.8013108734	1.0000000000	61.8271189421	1.0000000000	0.0000000000	0.0000000000	-91.3751159975	1.0000000000	663.4157851449	1.0000000000	0.0000000000	0.0000000000
0.1400000000	-0.9496826009	1.0000000000	36.2419867277	1.0000000000	0.0000000000	0.0000000000	-89.0475662948	1.0000000000	693.1851859757	1.0000000000	0.0000000000	0.0000000000
0.1500000000	-4.0077405796	1.0000000000	20.0748107190	1.0000000000	0.0000000000	0.0000000000	-84.8180283784	1.0000000000	715.2582284881	1.0000000000	0.0000000000	0.0000000000
0.1600000000	-4.1284606798	1.0000000000	10.0721957393	1.0000000000	0.0000000000	0.0000000000	-79.5902006481	1.0000000000	728.9163847958	1.0000000000	0.0000000000	0.0000000000
0.1700000000	-3.3220259139	1.0000000000	4.1076909380	1.0000000000	0.0000000000	0.0000000000	-74.3586811021	1.0000000000	734.5497562562	1.0000000000	0.0000000000	0.0000000000
0.1800000000	-1.8839228166	1.0000000000	0.9030194994	1.0000000000	0.0000000000	0.0000000000	-68.9254576028	1.0000000000	733.4450187187	1.0000000000	0.0000000000	0.0000000000
0.1900000000	0.0000000000	1.0000000000	0.0000000000	1.0000000000	0.0000000000	0.0000000000	-63.4588776637	1.0000000000	727.1876943774	1.0000000000	0.0000000000	0.0000000000
0.2000000000	0.0000000000	1.0000000000	0.0000000000	1.0000000000	0.0000000000	0.0000000000	-58.5329591732	1.0000000000	716.4260383855	1.0000000000	0.0000000000	0.0000000000
0.2100000000	0.0000000000	1.0000000000	0.0000000000	1.0000000000	0.0000000000	0.0000000000	-53.7762584830	1.0000000000	701.3929861457	1.0000000000	0.0000000000	0.0000000000
